# Blender 4.4.3
# www.blender.org
o ConstructionGridCell.008
v 6.999999 -0.000001 -0.500000 1.0000 1.0000 1.0000
v 6.999998 -1.000001 -0.500000 1.0000 1.0000 1.0000
v 7.000000 0.000000 7.500000 1.0000 1.0000 1.0000
v 7.000000 -1.000000 7.500000 1.0000 1.0000 1.0000
v 7.000000 0.000000 -0.500000 1.0000 1.0000 1.0000
v 7.999999 0.000000 -0.500000 1.0000 1.0000 1.0000
v 7.000000 0.000000 7.500000 1.0000 1.0000 1.0000
v 7.999999 0.000000 7.500000 1.0000 1.0000 1.0000
v 6.999998 0.000001 -0.500000 1.0000 1.0000 1.0000
v 5.999997 0.000001 -0.500000 1.0000 1.0000 1.0000
v 7.000000 0.000000 7.500000 1.0000 1.0000 1.0000
v 6.000000 0.000000 7.500000 1.0000 1.0000 1.0000
v 7.000000 0.000001 -0.500000 1.0000 1.0000 1.0000
v 7.000000 1.000001 -0.500000 1.0000 1.0000 1.0000
v 7.000000 0.000000 7.500000 1.0000 1.0000 1.0000
v 7.000001 1.000000 7.500000 1.0000 1.0000 1.0000
v -0.500001 -0.000002 0.000002 1.0000 1.0000 1.0000
v -0.500001 -1.000003 0.000002 1.0000 1.0000 1.0000
v 7.499999 0.000000 -0.000001 1.0000 1.0000 1.0000
v 7.499999 -1.000000 -0.000001 1.0000 1.0000 1.0000
v -0.500001 -0.000001 0.000001 1.0000 1.0000 1.0000
v -0.500001 -0.000002 -0.999999 1.0000 1.0000 1.0000
v 7.499999 0.000000 -0.000001 1.0000 1.0000 1.0000
v 7.499999 -0.000000 -1.000000 1.0000 1.0000 1.0000
v -0.500001 -0.000000 0.000003 1.0000 1.0000 1.0000
v -0.500000 -0.000000 1.000003 1.0000 1.0000 1.0000
v 7.499999 0.000000 -0.000001 1.0000 1.0000 1.0000
v 7.499999 0.000000 0.999999 1.0000 1.0000 1.0000
v -0.500001 -0.000000 0.000001 1.0000 1.0000 1.0000
v -0.500001 1.000000 0.000001 1.0000 1.0000 1.0000
v 7.499999 0.000000 -0.000001 1.0000 1.0000 1.0000
v 7.499999 1.000000 -0.000002 1.0000 1.0000 1.0000
v 0.000003 -0.000002 7.500002 1.0000 1.0000 1.0000
v 0.000003 -1.000002 7.500002 1.0000 1.0000 1.0000
v -0.000002 -0.000001 -0.499998 1.0000 1.0000 1.0000
v -0.000001 -1.000001 -0.499998 1.0000 1.0000 1.0000
v 0.000002 -0.000001 7.500002 1.0000 1.0000 1.0000
v -0.999998 -0.000002 7.500002 1.0000 1.0000 1.0000
v -0.000002 -0.000001 -0.499998 1.0000 1.0000 1.0000
v -1.000002 -0.000002 -0.499998 1.0000 1.0000 1.0000
v 0.000004 -0.000000 7.500002 1.0000 1.0000 1.0000
v 1.000004 0.000000 7.500001 1.0000 1.0000 1.0000
v -0.000002 -0.000001 -0.499998 1.0000 1.0000 1.0000
v 0.999998 -0.000001 -0.499999 1.0000 1.0000 1.0000
v 0.000002 -0.000000 7.500002 1.0000 1.0000 1.0000
v 0.000001 1.000000 7.500002 1.0000 1.0000 1.0000
v -0.000002 -0.000001 -0.499998 1.0000 1.0000 1.0000
v -0.000003 0.999998 -0.499998 1.0000 1.0000 1.0000
v 7.500003 -0.000001 6.999995 1.0000 1.0000 1.0000
v 7.500003 -1.000001 6.999995 1.0000 1.0000 1.0000
v -0.499997 -0.000001 7.000003 1.0000 1.0000 1.0000
v -0.499997 -1.000001 7.000003 1.0000 1.0000 1.0000
v 7.500003 0.000000 6.999996 1.0000 1.0000 1.0000
v 7.500004 -0.000000 7.999996 1.0000 1.0000 1.0000
v -0.499997 -0.000001 7.000003 1.0000 1.0000 1.0000
v -0.499996 -0.000002 8.000003 1.0000 1.0000 1.0000
v 7.500003 0.000001 6.999994 1.0000 1.0000 1.0000
v 7.500002 0.000001 5.999994 1.0000 1.0000 1.0000
v -0.499997 -0.000001 7.000003 1.0000 1.0000 1.0000
v -0.499998 -0.000001 6.000004 1.0000 1.0000 1.0000
v 7.500003 0.000001 6.999996 1.0000 1.0000 1.0000
v 7.500003 1.000001 6.999997 1.0000 1.0000 1.0000
v -0.499997 -0.000001 7.000003 1.0000 1.0000 1.0000
v -0.499997 0.999998 7.000004 1.0000 1.0000 1.0000
vn 1.0000 -0.0000 -0.0000
vn -0.0000 1.0000 -0.0000
vn -0.0000 -1.0000 -0.0000
vn -1.0000 -0.0000 -0.0000
vn -0.0000 -0.0000 -1.0000
vn -0.0000 -0.0000 1.0000
vt 0.000000 0.250000
vt 1.000000 0.250000
vt 1.000000 0.500000
vt 0.000000 0.500000
vt 0.000000 0.000000
vt 1.000000 0.000000
vt 1.000000 0.750000
vt 0.000000 0.750000
vt 1.000000 1.000000
vt 0.000000 1.000000
s 0
f 1/1/1 3/2/1 4/3/1 2/4/1
f 5/5/2 7/6/2 8/2/2 6/1/2
f 9/4/3 11/3/3 12/7/3 10/8/3
f 13/8/4 15/7/4 16/9/4 14/10/4
f 17/1/5 19/2/5 20/3/5 18/4/5
f 21/5/2 23/6/2 24/2/2 22/1/2
f 25/4/3 27/3/3 28/7/3 26/8/3
f 29/8/6 31/7/6 32/9/6 30/10/6
f 33/1/4 35/2/4 36/3/4 34/4/4
f 37/5/2 39/6/2 40/2/2 38/1/2
f 41/4/3 43/3/3 44/7/3 42/8/3
f 45/8/1 47/7/1 48/9/1 46/10/1
f 49/1/6 51/2/6 52/3/6 50/4/6
f 53/5/2 55/6/2 56/2/2 54/1/2
f 57/4/3 59/3/3 60/7/3 58/8/3
f 61/8/5 63/7/5 64/9/5 62/10/5
